<svg xmlns="http://www.w3.org/2000/svg" width="100" height="100">
  <path d="M41.1 61.9h-4.9V71H39v-3h2.1c2.2 0 3.4-1.4 3.4-3 0-1.8-1.2-3.2-3.4-3.2zm-.3 3.9H39v-1.5h1.8c.4 0 .8.2.8.7 0 .5-.4.8-.8.8zM50 61.9h-4V71h4c3 0 5.1-1.7 5.1-4.6s-2.2-4.6-5-4.6zm0 6.8h-1.3v-4.4H50c1.5 0 2.3 1 2.3 2.2 0 1.1-.9 2.2-2.3 2.2zM56.8 71h2.8v-3.4h4.1v-2.4h-4.1v-.9h4.2v-2.4h-7z"/>
  <path d="M80.3 12.5v-4c0-1-.8-1.7-1.8-1.7H45.7l-26 25.9v58.8c0 1 .8 1.7 1.8 1.7h57c1 0 1.8-.7 1.8-1.7v-79zM29.7 83.3V36.2h17.7c1 0 1.7-.8 1.7-1.8V16.7h21.2v66.6H29.7z"/>
</svg>